# Alias OBJ Model File
# Exported from SketchUp, (c) 2000-2012 Trimble Navigation Limited
# File units = meters

mtllib BigFuckingMountain.mtl

g Mesh1 Model

usemtl FrontColor
v 0 0 -0
vt 0 0
vn 0 -1 -0
v 0 0 -3.24
vt 0 127.559
v 9.55 0 -3.24
vt -375.984 127.559
v 9.55 0 -0
vt -375.984 0
f 1/1/1 2/2/1 3/3/1 4/4/1 

vn -3.54337e-17 -1 -0
v -2.5467 9.02389e-17 -0
vt 100.264 0
v -2.5467 9.02389e-17 -3.24
vt 100.264 127.559
f 1/1/2 5/5/2 6/6/2 2/2/2 

v -1.98241 0.436287 -0
vt -78.0477 17.1766
vn 0 0 1
vt -100.264 3.55271e-15
vt 375.984 0
v 7.91339 1.31587 -0
vt 311.551 51.8058
v 7.25238 2.28125 -0
vt 285.527 89.813
v 6.98232 2.90532 -0
vt 274.894 114.383
v 6.29592 3.38953 -0
vt 247.871 133.446
v 5.50783 2.93453 -0
vt 216.844 115.533
v 4.92782 3.67425 -0
vt 194.009 144.655
v 4.50347 3.91925 -0
vt 177.302 154.301
v 4.11347 4.59475 -0
vt 161.948 180.896
v 3.68045 4.34475 -0
vt 144.9 171.053
v 2.75843 3.33145 -0
vt 108.6 131.159
v 1.67239 2.98485 -0
vt 65.8423 117.514
v 1.20867 2.23695 -0
vt 47.5855 88.0688
v 0.132165 1.89339 -0
vt 5.20334 74.5429
v -0.818076 0.991646 -0
vt -32.2077 39.0412
f 7/7/3 5/8/3 1/1/3 4/9/3 8/10/3 9/11/3 10/12/3 11/13/3 12/14/3 13/15/3 14/16/3 15/17/3 16/18/3 17/19/3 18/20/3 19/21/3 20/22/3 21/23/3 

vt -127.559 -79.3204
vn -0.611664 0.791118 -0
vt 0 -79.3204
vt 0 -51.2386
v -1.98241 0.436287 -3.24
vt -127.559 -51.2386
f 6/24/4 5/25/4 7/26/4 22/27/4 

vt 0 -63.0499
vn -0.430511 0.902585 -0
vt 0 -12.2625
v -0.818076 0.991646 -3.24
vt -127.559 -12.2625
vt -127.559 -63.0499
f 7/28/5 21/29/5 23/30/5 22/31/5 

vt 0 3.51154
vn -0.688355 0.725374 -0
vt 0 55.0863
v 0.132165 1.89339 -3.24
vt -127.559 55.0863
vt -127.559 3.51154
f 21/32/6 20/33/6 24/34/6 23/35/6 

v 1.20867 2.23695 -3.24
vt -127.559 72.1087
vn -0.304033 0.952661 -0
vt -127.559 27.6205
vt 0 27.6205
vt 0 72.1087
f 25/36/7 24/37/7 20/38/7 19/39/7 

vt 100.264 3.55271e-15
vn -5.04853e-32 6.54835e-32 -1
vt 78.0477 17.1766
vt 32.2077 39.0412
vt -5.20334 74.5429
vt -47.5855 88.0688
v 1.67239 2.98485 -3.24
vt -65.8423 117.514
v 2.75843 3.33145 -3.24
vt -108.6 131.159
v 3.68045 4.34475 -3.24
vt -144.9 171.053
v 4.11347 4.59475 -3.24
vt -161.948 180.896
v 4.50347 3.91925 -3.24
vt -177.302 154.301
v 4.92782 3.67425 -3.24
vt -194.009 144.655
v 5.50783 2.93453 -3.24
vt -216.844 115.533
v 6.29592 3.38953 -3.24
vt -247.871 133.446
v 6.98232 2.90532 -3.24
vt -274.894 114.383
v 7.25238 2.28125 -3.24
vt -285.527 89.813
v 7.91339 1.31587 -3.24
vt -311.551 51.8058
vt -375.984 -8.35302e-30
vt -6.43986e-30 -8.35302e-30
f 6/40/8 22/41/8 23/42/8 24/43/8 25/44/8 26/45/8 27/46/8 28/47/8 29/48/8 30/49/8 31/50/8 32/51/8 33/52/8 34/53/8 35/54/8 36/55/8 3/56/8 2/57/8 

vt -127.559 134.57
vn -0.849893 0.526956 -0
vt -127.559 99.9245
vt 0 99.9245
vt 0 134.57
f 26/58/9 25/59/9 19/60/9 18/61/9 

vt 0 98.4535
vt 0 143.335
vt -127.559 143.335
vt -127.559 98.4535
f 18/62/7 17/63/7 27/64/7 26/65/7 

vt 0 170.098
vn -0.739631 0.673013 -0
vt 0 224.035
vt -127.559 224.035
vt -127.559 170.098
f 17/66/10 16/67/10 28/68/10 27/69/10 

vt -127.559 230.698
vn -0.5 0.866025 -0
vt -127.559 211.013
vt 0 211.013
vt 0 230.698
f 29/70/11 28/71/11 16/72/11 15/73/11 

vt 127.559 44.9777
vn 0.866025 0.5 -0
vt 127.559 75.6863
vt 0 75.6863
vt 0 44.9777
f 30/74/12 29/75/12 15/76/12 14/77/12 

vt 0 -76.3974
vn 0.5 0.866025 -0
vt 0 -95.6887
vt 127.559 -95.6887
vt 127.559 -76.3974
f 14/78/13 13/79/13 31/80/13 30/81/13 

vt 127.559 -42.8838
vn 0.786935 0.617036 -0
vt 127.559 -5.87593
vt 0 -5.87593
vt 0 -42.8838
f 32/82/14 31/83/14 13/84/14 12/85/14 

vt -127.559 281.385
vt -127.559 245.559
vt 0 245.559
vt 0 281.385
f 33/86/11 32/87/11 12/88/11 11/89/11 

vt 0 -125.624
vn 0.576432 0.817145 -0
vt 0 -158.695
vt 127.559 -158.695
vt 127.559 -125.624
f 11/90/15 10/91/15 34/92/15 33/93/15 

vt 0 -4.19837
vn 0.917755 0.397148 -0
vt 0 -30.97
vt 127.559 -30.97
vt 127.559 -4.19837
f 10/94/16 9/95/16 35/96/16 34/97/16 

vt 127.559 -133.27
vn 0.825113 0.564967 -0
vt 127.559 -87.2072
vt 0 -87.2072
vt 0 -133.27
f 36/98/17 35/99/17 9/100/17 8/101/17 

vt 127.559 -293.019
vn 0.626604 0.779338 -0
vt 127.559 -210.342
vt 0 -210.342
vt 0 -293.019
f 3/102/18 36/103/18 8/104/18 4/105/18 

