# Alias OBJ Model File
# Exported from SketchUp, (c) 2000-2012 Trimble Navigation Limited
# File units = meters

mtllib Extension.mtl

g Mesh1 Model

usemtl FrontColor
v 8.81388 0 -0.108527
vt 347.003 0
vn 0 0 1
v 8.31388 0.49956 -0.108527
vt 327.318 19.6677
v 6.35828 0 -0.108527
vt 250.326 0
f 1/1/1 2/2/1 3/3/1

v 8.81388 2.19422 -0.108527
vt 347.003 86.3868
f 2/2/1 1/1/1 4/4/1

vt -4.2727 0
vn -1 0 -0
vt -4.2727 86.3868
v 8.81388 2.19422 -6.50853
vt -256.241 86.3868
v 8.81388 0 -6.50853
vt -256.241 0
f 1/5/2 4/6/2 5/7/2 6/8/2 

v 12.9439 0 -0.108527
vt 509.601 0
v 12.9439 2.19 -0.108527
vt 509.601 86.2205
v 12.9439 3.9 -0.108527
vt 509.601 153.543
v 8.81388 3.9 -0.108527
vt 347.003 153.543
f 1/1/1 7/9/1 8/10/1 9/11/1 10/12/1 4/4/1 

v 8.81388 0 -8.27619
vt -347.003 325.834
vn 0 -1 -0
v 12.9439 0 -8.27619
vt -509.601 325.834
v 12.9439 0 -6.50853
vt -509.601 256.241
vt -509.601 4.2727
vt -347.003 4.2727
vt -347.003 256.241
f 11/13/3 12/14/3 13/15/3 7/16/3 1/17/3 6/18/3 

vt -347.003 0
vn 0 0 -1
v 8.81388 3.9 -8.27619
vt -347.003 153.543
v 12.9439 3.9 -8.27619
vt -509.601 153.543
vt -509.601 0
f 11/19/4 14/20/4 15/21/4 12/22/4 

v 8.81388 3.9 -1.63853
vt -64.5089 153.543
vt -325.834 153.543
vt -325.834 0
vt -4.2727 153.543
f 16/23/2 14/24/2 11/25/2 6/8/2 5/7/2 4/6/2 10/26/2 

v 12.9439 3.9 -1.63853
vt 509.601 64.5089
vn 0 1 -0
vt 509.601 325.834
vt 347.003 325.834
vt 347.003 64.5089
v 10.6139 3.9 -1.63853
vt 417.869 64.5089
v 10.6139 3.9 -2.16853
vt 417.869 85.3751
v 11.1439 3.9 -2.16853
vt 438.735 85.3751
v 11.1439 3.9 -1.63853
vt 438.735 64.5089
f 17/27/5 15/28/5 14/29/5 16/30/5 18/31/5 19/32/5 20/33/5 21/34/5 

vt 256.241 -2.5943e-14
vn 1 5.09084e-17 -7.6967e-17
vt 325.834 -2.5943e-14
vt 325.834 153.543
vt 64.5089 153.543
vt 4.2727 153.543
vt 4.2727 86.2205
v 12.9439 2.19 -6.50853
vt 256.241 86.2205
f 13/35/6 12/36/6 15/37/6 17/38/6 9/39/6 8/40/6 22/41/6 

vt 347.003 4.2727
vt 509.601 4.2727
f 21/34/5 18/31/5 16/30/5 10/42/5 9/43/5 17/27/5 

vt -417.869 153.543
vt -438.735 153.543
v 11.1439 3.8 -1.63853
vt -438.735 149.606
v 10.6139 3.8 -1.63853
vt -417.869 149.606
f 18/44/4 21/45/4 23/46/4 24/47/4 

vt -347.003 41.5241
vn 1.76143e-32 0.796248 -0.604971
v 8.81388 5.06246 -0.108527
vt -347.003 117.174
v 12.9439 5.06246 -0.108527
vt -509.601 117.174
vt -509.601 41.5241
vt -438.735 41.5241
vt -417.869 41.5241
f 16/48/7 25/49/7 26/50/7 17/51/7 21/52/7 18/53/7 

vt -4.2727 199.309
f 10/26/2 25/54/2 16/23/2

vt 347.003 199.309
vn 0 3.10511e-16 1
vt 509.601 199.309
f 25/55/8 10/12/8 9/11/8 26/56/8 

vt 4.2727 199.309
vn 1 0 -0
f 26/57/9 9/39/9 17/38/9

f 18/31/5 21/34/5 20/33/5 19/32/5 

vt -85.3751 153.543
v 11.1439 3.8 -2.16853
vt -85.3751 149.606
vt -64.5089 149.606
f 21/23/2 20/58/2 27/59/2 23/60/2 

vt 438.735 153.543
vt 417.869 153.543
v 10.6139 3.8 -2.16853
vt 417.869 149.606
vt 438.735 149.606
f 20/61/1 19/62/1 28/63/1 27/64/1 

vt 85.3751 153.543
vt 64.5089 149.606
vt 85.3751 149.606
f 19/65/9 18/38/9 24/66/9 28/67/9 

f 28/32/5 24/31/5 23/34/5 27/33/5 

vt 509.601 256.241
v 15.4166 2.19 -0.0668217
vt 606.953 2.63077
f 22/68/5 8/43/5 29/69/5

vt 4.2727 0
vt 256.241 0
f 7/70/9 13/71/9 22/41/9 8/40/9 

v 15.4166 3.60956e-16 -0.0668217
vt -606.953 2.63077
vn 1.45974e-16 -1 8.24841e-33
f 30/72/10 7/16/10 13/15/10

vt 606.823 86.2205
vn -0.0168635 7.58964e-20 0.999858
vt 509.457 86.2205
vt 509.457 9.76465e-19
vt 606.823 1.42118e-14
f 29/73/11 8/74/11 7/75/11 30/76/11 

vt -215.057 -3.14533e-15
vn 0.93358 3.05791e-17 -0.358368
vt 56.5969 -1.73562e-14
vt 56.5969 86.2205
vt -215.057 86.2205
f 30/77/12 13/78/12 22/79/12 29/80/12 

vt -363.541 86.3868
vn -0.933636 0 -0.358224
vt -363.541 0
vt -93.6619 0
v 6.35828 2.19422 -0.108527
vt -93.6619 86.3868
f 5/81/13 6/82/13 3/83/13 31/84/13 

vt -250.326 4.2727
f 1/17/3 3/85/3 6/18/3

v 6.85828 0.49956 -0.108527
vt 270.011 19.6677
vt 250.326 86.3868
f 3/3/1 32/86/1 31/87/1

f 32/86/1 3/3/1 2/2/1

vt -270.011 4.2727
vt -327.318 4.2727
v 8.31388 0.49956 0.0514734
vt -327.318 -2.02651
v 6.85828 0.49956 0.0514734
vt -270.011 -2.02651
f 32/88/3 2/89/3 33/90/3 34/91/3 

vt 4.2727 19.6677
vn 1 7.5535e-17 -0
v 8.31388 1.69422 -0.108527
vt 4.2727 66.7017
v 8.31388 1.69422 0.0514734
vt -2.02651 66.7017
vt -2.02651 19.6677
f 2/92/14 35/93/14 36/94/14 33/95/14 

vt 327.318 66.7017
f 2/2/1 4/4/1 35/96/1

v 6.85828 1.69422 -0.108527
vt 270.011 66.7017
f 35/96/1 4/4/1 37/97/1

f 31/87/1 37/97/1 4/4/1

f 31/87/1 32/86/1 37/97/1

vt -4.2727 66.7017
vt -4.2727 19.6677
vt 2.02651 19.6677
v 6.85828 1.69422 0.0514734
vt 2.02651 66.7017
f 37/98/2 32/99/2 34/100/2 38/101/2 

f 34/86/1 33/2/1 36/96/1 38/97/1 

vt 327.318 4.2727
vt 270.011 4.2727
vt 270.011 -2.02651
vt 327.318 -2.02651
f 35/102/5 37/103/5 38/104/5 36/105/5 

vt 347.003 256.241
vt 250.326 4.2727
f 4/42/5 5/106/5 31/107/5

g Mesh2 Model

v 9.31388 0.5 -0.108527
vt -366.635 19.685
vn 0.00895118 -1.13594e-19 -0.99996
v 9.31388 3.4 -0.108527
vt -366.635 133.858
v 12.4439 3.4 -0.0805083
vt -489.869 133.858
v 12.4439 0.5 -0.0805083
vt -489.869 19.685
f 39/108/15 40/109/15 41/110/15 42/111/15 

vt -7.55482 133.858
vn -0.99996 0 -0.00895118
vt -7.55482 19.685
v 9.31101 0.5 0.211461
vt 5.0436 19.685
v 9.31101 3.4 0.211461
vt 5.0436 133.858
f 40/112/16 39/113/16 43/114/16 44/115/16 

vt -366.688 4.2727
vn -5.7657e-17 -1 -4.0252e-19
vt -489.917 3.16962
v 12.441 0.5 0.239479
vt -489.804 -9.4283
vt -366.575 -8.32522
f 39/116/17 42/117/17 45/118/17 43/119/17 

vt 7.55482 19.685
vn 0.99996 2.48942e-16 0.00895118
vt 7.55482 133.858
v 12.441 3.4 0.239479
vt -5.0436 133.858
vt -5.0436 19.685
f 42/120/18 41/121/18 46/122/18 45/123/18 

vt 489.917 3.16962
vn 1.0168e-21 1 -1.1359e-19
vt 366.688 4.2727
vt 366.575 -8.32522
vt 489.804 -9.4283
f 41/124/19 40/125/19 44/126/19 46/127/19 

vt 366.635 133.858
vn -0.00895118 1.13594e-19 0.99996
vt 366.635 19.685
vt 489.869 19.685
vt 489.869 133.858
f 44/128/20 43/129/20 45/130/20 46/131/20 

g Mesh3 Model

v 14.9152 1.69 -0.0691301
vt 587.214 2.72166
vn 8.05901e-20 1 -3.82958e-18
v 13.4438 1.69 -0.100095
vt 529.284 3.94074
v 13.4404 1.69 0.0598697
vt 529.151 -2.35708
v 14.9119 1.69 0.0908345
vt 587.081 -3.57616
f 47/132/21 48/133/21 49/134/21 50/135/21 

v 14.9152 0.5 -0.0691301
vt -587.026 19.685
vn 0.0210395 -3.83043e-18 -0.999779
v 13.4438 0.5 -0.100095
vt -529.084 19.685
vt -529.084 66.5354
vt -587.026 66.5354
f 51/136/22 52/137/22 48/138/22 47/139/22 

vt -529.284 3.94074
vn -6.13811e-17 -1 2.53956e-18
vt -587.214 2.72166
v 14.9119 0.5 0.0908345
vt -587.081 -3.57616
v 13.4404 0.5 0.0598697
vt -529.151 -2.35708
f 52/140/23 51/141/23 53/142/23 54/143/23 

vt 15.0757 19.685
vn 0.999779 -6.06614e-16 0.0210395
vt 15.0757 66.5354
vt 8.7765 66.5354
vt 8.7765 19.685
f 51/144/24 47/145/24 50/146/24 53/147/24 

vt 529.084 19.685
vn -0.0210395 3.83043e-18 0.999779
vt 587.026 19.685
vt 587.026 66.5354
vt 529.084 66.5354
f 54/148/25 53/149/25 50/150/25 49/151/25 

vt -15.0757 66.5354
vn -0.999779 0 -0.0210395
vt -15.0757 19.685
vt -8.7765 19.685
vt -8.7765 66.5354
f 48/152/26 52/153/26 54/154/26 49/155/26 

