# Alias OBJ Model File
# Exported from SketchUp, (c) 2000-2012 Trimble Navigation Limited
# File units = meters

mtllib Untitled.mtl

g Mesh1 Model

usemtl FrontColor
v 0 0 -0.995
vt 0 39.1732
vn 0 -1 -0
v 0.05 0 -0.945
vt -1.9685 37.2047
v 0 0 -0
vt 0 0
f 1/1/1 2/2/1 3/3/1

v 0.995 0 -0.995
vt -39.1732 39.1732
f 2/2/1 1/1/1 4/4/1

vn 0 0 -1
v 0.05 0.05 -0.995
vt -1.9685 1.9685
vt -39.1732 0
f 1/3/2 5/5/2 4/6/2

v 0 1.95 -0.995
vt 0 76.7717
f 5/5/2 1/3/2 6/7/2

vn -1 0 -0
v 0 0.05 -0.945
vt -37.2047 1.9685
vt -39.1732 76.7717
f 1/6/3 7/8/3 6/9/3

v 0 0.05 -0.05
f 1/6/3 8/5/3 7/8/3

f 8/5/3 1/6/3 3/3/3

v 0 1.9 -0.05
vt -1.9685 74.8031
f 3/3/3 9/10/3 8/5/3

v 0 1.95 -0
f 10/7/3 9/10/3 3/3/3

f 9/10/3 10/7/3 6/9/3

vt -8.46412e-16 -5.98288e-14
vn 1.10251e-17 1 -7.79308e-16
v 0.05 1.95 -0.05
vt 1.9685 1.9685
vt -8.46412e-16 39.1732
f 10/11/4 11/12/4 6/13/4

v 0.995 1.95 -0
vt 39.1732 -5.98288e-14
f 11/12/4 10/11/4 12/14/4

vn 0 0 1
v 0.05 1.9 -0
vt 1.9685 74.8031
vt 39.1732 76.7717
f 10/7/5 13/15/5 12/16/5

v 0.05 0.05 -0
f 10/7/5 14/12/5 13/15/5

f 3/3/5 14/12/5 10/7/5

v 0.945 0.05 -0
vt 37.2047 1.9685
f 14/12/5 3/3/5 15/17/5

v 0.995 0 -0
vt 39.1732 0
f 16/18/5 15/17/5 3/3/5

f 15/17/5 16/18/5 12/16/5

vn 1 0 -0
v 0.995 0.05 -0.05
f 16/3/6 17/12/6 12/7/6

f 17/12/6 16/3/6 4/18/6

v 0.945 0 -0.05
f 16/6/1 18/8/1 4/4/1

v 0.05 0 -0.05
f 16/6/1 19/5/1 18/8/1

f 3/3/1 19/5/1 16/6/1

f 19/5/1 3/3/1 2/2/1

vt 1.9685 0
vt 37.2047 0
v 0.05 0.05 -0.945
v 0.05 0.05 -0.05
f 19/19/6 2/20/6 20/17/6 21/12/6 

v 0.945 0 -0.945
v 0.945 0.05 -0.945
f 2/19/5 22/20/5 23/17/5 20/12/5 

vt -37.2047 37.2047
f 2/2/1 4/4/1 22/21/1

f 22/21/1 4/4/1 18/8/1

vt -37.2047 0
vt -1.9685 0
v 0.945 0.05 -0.05
f 22/22/3 18/23/3 24/5/3 23/8/3 

f 18/22/2 19/23/2 21/5/2 24/8/2 

vn 0 1 -0
f 14/19/7 15/20/7 24/17/7 21/12/7 

vt 0 1.9685
v 0.945 1.9 -0
vt 0 74.8031
v 0.945 1.9 -0.05
f 24/5/3 15/24/3 25/25/3 26/10/3 

vt 37.2047 74.8031
f 15/17/5 12/16/5 25/26/5

f 25/26/5 12/16/5 13/15/5

v 0.05 1.9 -0.05
f 13/23/1 27/5/1 26/8/1 25/22/1 

f 21/12/6 27/15/6 13/25/6 14/24/6 

vn 1.20319e-15 -9.62035e-17 -1
vt 2.36848e-15 1.9685
vt 2.36848e-15 74.8031
f 21/5/8 8/27/8 9/28/8 27/10/8 

vt 0 37.2047
vt 1.9685 37.2047
f 7/29/7 8/24/7 21/12/7 20/30/7 

v 0.05 1.9 -0.945
v 0 1.9 -0.945
f 20/12/5 28/15/5 29/25/5 7/24/5 

vt 39.1732 1.9685
v 0.05 1.9 -0.995
vt 39.1732 74.8031
f 5/31/6 30/32/6 28/26/6 20/17/6 

f 5/5/2 6/7/2 30/10/2

v 0.945 1.9 -0.995
vt -37.2047 74.8031
f 30/10/2 6/7/2 31/33/2

v 0.995 1.95 -0.995
f 32/9/2 31/33/2 6/7/2

v 0.945 0.05 -0.995
f 32/9/2 33/8/2 31/33/2

f 4/6/2 33/8/2 32/9/2

f 33/8/2 4/6/2 5/5/2

vt 37.2047 37.2047
vt 37.2047 39.1732
vt 1.9685 39.1732
f 20/30/7 23/34/7 33/35/7 5/36/7 

vt -39.1732 1.9685
vn -1 -7.11906e-17 1.20319e-15
v 0.945 1.9 -0.945
vt -39.1732 74.8031
f 33/37/9 23/8/9 34/33/9 31/38/9 

v 0.995 0.05 -0.945
v 0.995 1.9 -0.945
f 35/31/5 36/32/5 34/26/5 23/17/5 

f 35/17/6 4/18/6 36/26/6

f 17/12/6 4/18/6 35/17/6

vt 39.1732 37.2047
f 23/34/7 24/17/7 17/31/7 35/39/7 

vn 6.39192e-16 -6.01873e-17 -1
v 0.995 1.9 -0.05
f 17/37/10 24/8/10 26/33/10 37/38/10 

vn -7.21911e-15 -1 7.23643e-31
vt -39.1732 37.2047
f 34/21/11 36/40/11 37/37/11 26/8/11 

f 32/16/6 37/15/6 36/26/6

f 12/7/6 37/15/6 32/16/6

f 37/15/6 12/7/6 17/12/6

vt 39.1732 39.1732
v 0.945 1.95 -0.05
f 32/41/4 38/17/4 12/14/4

v 0.945 1.95 -0.945
f 32/41/4 39/34/4 38/17/4

v 0.05 1.95 -0.945
f 32/41/4 40/30/4 39/34/4

f 6/13/4 40/30/4 32/41/4

f 40/30/4 6/13/4 11/12/4

vt 37.2047 76.7717
vt 1.9685 76.7717
f 40/42/6 11/43/6 27/15/6 28/26/6 

vn 1.48088e-16 2.76357e-15 -1
vt -1.9685 76.7717
vt -37.2047 76.7717
f 27/10/12 11/44/12 38/45/12 26/33/12 

f 11/12/4 12/14/4 38/17/4

vn -1 -5.54638e-31 2.01651e-16
f 39/45/13 34/33/13 26/10/13 38/44/13 

f 28/15/5 34/26/5 39/42/5 40/43/5 

vt -1.9685 39.1732
vt -37.2047 39.1732
f 28/2/1 30/46/1 31/47/1 34/21/1 

f 29/29/1 28/2/1 27/5/1 9/24/1 

f 9/10/3 6/9/3 29/33/3

f 29/33/3 6/9/3 7/8/3

f 32/16/6 36/26/6 4/18/6

