# Alias OBJ Model File
# Exported from SketchUp, (c) 2000-2012 Trimble Navigation Limited
# File units = meters

mtllib Spaceship.mtl

g Mesh1 Model

usemtl FrontColor
v 4.13 0 -10.1212
vt -162.598 398.471
vn 0 -1 -0
v 4.13 0 -8.62117
vt -162.598 339.416
v 0 0 -8.62117
vt 0 339.416
v 0 0 -10.1212
vt 0 398.471
v 0 0 -14.53
vt 0 572.047
v 4.13 0 -14.53
vt -162.598 572.047
f 1/1/1 2/2/1 3/3/1 4/4/1 5/5/1 6/6/1 

vt 339.416 0
vn 1 0 -0
vt 398.471 0
v 4.13 1.25 -10.1212
vt 398.471 49.2126
v 4.13 1.25 -8.62117
vt 339.416 49.2126
f 2/7/2 1/8/2 7/9/2 8/10/2 

v 5.13755 0 -8.62117
vt -202.266 339.416
f 9/11/1 2/2/1 1/1/1

vt 162.598 0
vn 0 0 1
vt 202.266 0
v 5.13755 1.25 -8.62117
vt 202.266 49.2126
vt 162.598 49.2126
f 2/12/3 9/13/3 10/14/3 8/15/3 

vt -240.114 49.2126
vn -0.830116 1.33815e-17 0.557591
vt -240.114 4.77932e-15
vt -168.973 4.77932e-15
vt -168.973 49.2126
f 7/16/4 1/17/4 9/18/4 10/19/4 

v 4.13 3.9 -8.62117
vt 339.416 153.543
vn 1 -8.62172e-17 1.61328e-16
vt 398.471 1.40188e-14
vt 572.047 1.40188e-14
v 4.13 1.39 -14.53
vt 572.047 54.7244
v 4.13 1.39 -12.0209
vt 473.262 54.7244
v 4.13 3.89914 -12.0209
vt 473.262 153.51
v 4.13 3.9 -12.02
vt 473.228 153.543
f 11/20/5 8/10/5 7/9/5 1/21/5 6/22/5 12/23/5 13/24/5 14/25/5 15/26/5 

v 3.85921 3.63735 -8.62117
vt 151.937 143.203
vt 162.598 153.543
f 16/27/3 8/15/3 11/28/3

v 3.85921 0.287355 -8.62117
vt 151.937 11.3132
f 17/29/3 8/15/3 16/27/3

f 17/29/3 2/12/3 8/15/3

vt 0 0
f 2/12/3 17/29/3 3/30/3

v 0.259207 0.287355 -8.62117
vt 10.205 11.3132
f 18/31/3 3/30/3 17/29/3

v 0 1.25 -8.62117
vt 0 49.2126
f 3/30/3 18/31/3 19/32/3

v 0.259207 3.63735 -8.62117
vt 10.205 143.203
f 19/32/3 18/31/3 20/33/3

vt -339.416 143.203
vn -1 0 -0
vt -339.416 11.3132
v 0.259207 0.287355 -8.41117
vt -331.148 11.3132
v 0.259207 3.63735 -8.41117
vt -331.148 143.203
f 20/34/6 18/35/6 21/36/6 22/37/6 

vt -10.205 339.416
vt -151.937 339.416
v 3.85921 0.287355 -8.41117
vt -151.937 331.148
vt -10.205 331.148
f 18/38/1 17/39/1 23/40/1 21/41/1 

vt 339.416 11.3132
vt 339.416 143.203
v 3.85921 3.63735 -8.41117
vt 331.148 143.203
vt 331.148 11.3132
f 17/42/2 16/43/2 24/44/2 23/45/2 

vt 151.937 339.416
vn 0 1 -0
vt 10.205 339.416
vt 10.205 331.148
vt 151.937 331.148
f 16/46/7 20/47/7 22/48/7 24/49/7 

f 16/27/3 11/28/3 20/33/3

v 0 3.9 -8.62117
vt 0 153.543
f 25/50/3 20/33/3 11/28/3

f 19/32/3 20/33/3 25/50/3

vt -572.047 0
vt -398.471 0
v 0 1.25 -10.1212
vt -398.471 49.2126
vt -339.416 49.2126
vt -339.416 153.543
v 0 3.9 -12.0198
vt -473.219 153.543
v 0 1.39 -12.0209
vt -473.262 54.7244
v 0 1.39 -14.53
vt -572.047 54.7244
f 5/51/6 4/52/6 26/53/6 19/54/6 25/55/6 27/56/6 28/57/6 29/58/6 

vt -332.471 2.76369e-15
vn -0.834367 -1.25828e-17 -0.551209
v -0.990947 0 -8.62117
vt -261.693 2.76369e-15
v -0.990947 1.25 -8.62117
vt -261.693 49.2126
vt -332.471 49.2126
f 4/59/8 30/60/8 31/61/8 26/62/8 

vt 39.0137 339.416
f 3/3/1 30/63/1 4/4/1

vt -39.0137 0
vt -39.0137 49.2126
f 30/64/3 3/30/3 19/32/3 31/65/3 

vt -339.416 0
f 3/66/6 19/54/6 26/53/6 4/52/6 

vt 1.79258e-14 339.416
vn -3.64253e-16 1 -1.20319e-16
vt 1.79258e-14 398.471
vt -39.0137 339.416
f 19/67/9 26/68/9 31/69/9

v 0.45 3.9 -8.97058
vt 17.7165 353.173
vt 0 473.219
f 25/3/7 32/70/7 27/71/7

vt 162.598 339.416
f 32/70/7 25/3/7 11/72/7

v 1.8 3.9 -8.97058
vt 70.8661 353.173
f 32/70/7 11/72/7 33/73/7

v 2.33 3.9 -8.96828
vt 91.7323 353.082
f 33/73/7 11/72/7 34/74/7

v 3.68231 3.9 -8.96828
vt 144.973 353.082
f 34/74/7 11/72/7 35/75/7

v 3.68231 3.9 -10.3206
vt 144.973 406.322
f 35/75/7 11/72/7 36/76/7

v 4.13 3.9 -12.0209
vt 162.598 473.262
f 37/77/7 36/76/7 11/72/7

v 2.65117 3.9 -11.7182
vt 104.377 461.346
f 37/77/7 38/78/7 36/76/7

v 1.42117 3.9 -11.7182
vt 55.9516 461.346
f 37/77/7 39/79/7 38/78/7

v 0 3.9 -12.0209
vt 0 473.262
f 40/80/7 39/79/7 37/77/7

v 0.45 3.9 -10.3206
vt 17.7165 406.322
f 39/79/7 40/80/7 41/81/7

f 41/81/7 40/80/7 32/70/7

v 0 3.9 -12.02
vt 0 473.228
f 42/82/7 32/70/7 40/80/7

f 27/71/7 32/70/7 42/82/7

v 0 3.89914 -12.0209
vt -473.262 153.51
vt -473.228 153.543
f 43/83/6 28/57/6 27/56/6 42/84/6 

vt -162.598 54.7244
vn 0 0 -1
vt 0 54.7244
vt 0 153.51
vt -162.598 153.543
vt -162.598 153.51
f 13/85/10 28/86/10 43/87/10 40/50/10 37/88/10 14/89/10 

vt 162.598 572.047
f 29/5/7 28/80/7 13/77/7 12/90/7 

f 43/83/6 29/58/6 28/57/6

vt -162.598 -365.802
vn -6.08125e-18 0.707107 -0.707107
vt -4.91971e-15 -365.802
vt -4.07014e-15 -226.099
vt -4.06985e-15 -226.051
v 0 3.90023 -12.0198
vt -4.06977e-15 -226.039
v 4.13 3.90023 -12.0198
vt -162.598 -226.039
vt -162.598 -226.051
vt -162.598 -226.099
f 12/91/11 29/92/11 43/93/11 42/94/11 44/95/11 45/96/11 15/97/11 14/98/11 

vt -162.598 0
f 6/99/10 5/30/10 29/86/10 12/85/10 

vt -473.219 153.552
f 27/56/6 44/100/6 42/84/6

vt 473.262 153.543
f 14/25/2 37/101/2 15/26/2

vt 162.598 473.228
f 37/77/7 11/72/7 15/102/7

f 14/25/2 13/24/2 12/23/2

vt 406.322 153.543
vt 353.173 153.543
v 0.45 3.75 -8.97058
vt 353.173 147.638
v 0.45 3.75 -10.3206
vt 406.322 147.638
f 41/103/2 32/104/2 46/105/2 47/106/2 

vt -17.7165 153.543
vt -70.8661 153.543
v 1.8 3.75 -8.97058
vt -70.8661 147.638
vt -17.7165 147.638
f 32/107/10 33/108/10 48/109/10 46/110/10 

vt -353.173 153.543
v 1.8 3.9 -10.3206
vt -406.322 153.543
v 1.8 3.75 -10.3206
vt -406.322 147.638
vt -353.173 147.638
f 33/111/6 49/112/6 50/113/6 48/114/6 

vt 70.8661 406.322
f 33/73/7 34/74/7 49/115/7

v 2.33 3.9 -10.3206
vt 91.7323 406.322
f 51/116/7 49/115/7 34/74/7

v 2.65117 3.9 -10.4882
vt 104.377 412.921
f 52/117/7 49/115/7 51/116/7

v 1.42117 3.9 -10.4882
vt 55.9516 412.921
f 53/118/7 49/115/7 52/117/7

f 49/115/7 53/118/7 41/81/7

f 39/79/7 41/81/7 53/118/7

vt 461.346 153.543
vt 412.921 153.543
v 1.42117 3.72 -10.4882
vt 412.921 146.457
v 1.42117 3.72 -11.7182
vt 461.346 146.457
f 39/119/2 53/120/2 54/121/2 55/122/2 

vt -55.9516 153.543
vt -104.377 153.543
v 2.65117 3.72 -10.4882
vt -104.377 146.457
vt -55.9516 146.457
f 53/123/10 52/124/10 56/125/10 54/126/10 

vt -412.921 153.543
vt -461.346 153.543
v 2.65117 3.72 -11.7182
vt -461.346 146.457
vt -412.921 146.457
f 52/127/6 38/128/6 57/129/6 56/130/6 

f 52/117/7 36/76/7 38/78/7

f 52/117/7 51/116/7 36/76/7

vt 144.973 153.543
vt 91.7323 153.543
v 2.33 3.78 -10.3206
vt 91.7323 148.819
v 3.68231 3.78 -10.3206
vt 144.973 148.819
f 36/131/3 51/132/3 58/133/3 59/134/3 

vt 353.082 153.543
v 2.33 3.78 -8.96828
vt 353.082 148.819
vt 406.322 148.819
f 51/103/2 34/135/2 60/136/2 58/137/2 

vt -91.7323 153.543
vt -144.973 153.543
v 3.68231 3.78 -8.96828
vt -144.973 148.819
vt -91.7323 148.819
f 34/138/10 35/139/10 61/140/10 60/141/10 

vt -353.082 153.543
vt -406.322 148.819
vt -353.082 148.819
f 35/142/6 36/112/6 59/143/6 61/144/6 

f 61/75/7 59/76/7 58/116/7 60/74/7 

vt 104.377 153.543
vt 55.9516 153.543
vt 55.9516 146.457
vt 104.377 146.457
f 38/145/3 39/146/3 55/147/3 57/148/3 

f 57/78/7 55/79/7 54/118/7 56/117/7 

vt 70.8661 153.543
vt 17.7165 153.543
vt 17.7165 147.638
vt 70.8661 147.638
f 49/149/3 41/150/3 47/151/3 50/152/3 

f 47/81/7 46/70/7 48/73/7 50/115/7 

f 24/27/3 22/33/3 21/31/3 23/29/3 

vt 162.598 398.471
vn 3.58249e-16 1 -1.20319e-16
vt 202.266 339.416
f 7/153/12 8/72/12 10/154/12

